<svg xmlns="http://www.w3.org/2000/svg" width="99" height="42" viewBox="0 0 99 42">
    <path fill="#FFF" fill-rule="evenodd" d="M47.327 20.613c-4.9-.802-8.627-5.072-8.627-10.239C38.7 4.634 43.3 0 49 0c5.7.1 10.3 4.734 10.3 10.475 0 5.076-3.726 9.337-8.627 10.138C61.491 21.47 70 30.582 70 41.698V42l-4.5-.1c0-9.368-7.4-16.82-16.5-16.82s-16.5 7.452-16.5 16.618H28c0-11.117 8.51-20.227 19.327-21.085zM49 4.633c-3.2 0-5.8 2.619-5.8 5.842 0 3.223 2.6 5.842 5.8 5.842 3.2 0 5.8-2.62 5.8-5.842 0-3.223-2.6-5.842-5.8-5.842zM28.26 26.78a16.249 16.249 0 0 0-7.26-1.7c-9.1 0-16.5 7.452-16.5 16.618H0C0 30.58 8.51 21.47 19.327 20.613c-4.9-.802-8.627-5.072-8.627-10.239C10.7 4.634 15.3 0 21 0c5.7.1 10.3 4.734 10.3 10.475 0 5.076-3.726 9.337-8.627 10.138a20.77 20.77 0 0 1 9.004 2.867 21.356 21.356 0 0 0-1.929 1.647 14.193 14.193 0 0 0-1.488 1.653zM21 4.633c-3.2 0-5.8 2.619-5.8 5.842 0 3.223 2.6 5.842 5.8 5.842 3.2 0 5.8-2.62 5.8-5.842 0-3.223-2.6-5.842-5.8-5.842zM70.417 26.78c-.434-.569-.93-1.12-1.488-1.653A21.356 21.356 0 0 0 67 23.48a20.77 20.77 0 0 1 9.004-2.867c-4.9-.801-8.627-5.062-8.627-10.138 0-5.741 4.6-10.374 10.3-10.475 5.7 0 10.3 4.633 10.3 10.374 0 5.167-3.726 9.437-8.627 10.239 10.817.858 19.327 9.968 19.327 21.085h-4.5c0-9.166-7.4-16.619-16.5-16.619-2.604 0-5.068.61-7.26 1.7zm7.26-22.147c-3.2 0-5.8 2.619-5.8 5.842 0 3.223 2.6 5.842 5.8 5.842 3.2 0 5.8-2.62 5.8-5.842 0-3.223-2.6-5.842-5.8-5.842z"/>
</svg>
