<svg xmlns="http://www.w3.org/2000/svg" width="32" height="32" viewBox="0 0 32 32">
    <path fill="#FFF" fill-rule="evenodd" d="M27.27 27.268h-4.746V19.84c0-1.77-.03-4.049-2.466-4.049-2.47 0-2.847 1.93-2.847 3.923v7.553h-4.74V11.996h4.549v2.088h.065c.633-1.2 2.182-2.466 4.49-2.466 4.806 0 5.694 3.162 5.694 7.274v8.376zM7.12 9.91a2.751 2.751 0 0 1-2.755-2.753 2.751 2.751 0 1 1 5.504 0A2.752 2.752 0 0 1 7.12 9.91zM4.741 27.268h4.751V11.996h-4.75v15.272zM29.632 0H2.362C1.059 0 0 1.033 0 2.308V29.69C0 30.965 1.059 32 2.36 32h27.272C30.938 32 32 30.965 32 29.69V2.309C32 1.033 30.938 0 29.633 0z"/>
</svg>
