<svg xmlns="http://www.w3.org/2000/svg" width="42" height="42" viewBox="0 0 42 42">
    <path fill="#FFF" fill-rule="nonzero" d="M0 20.999C.003 9.402 9.403 0 21.001 0 32.601 0 42 9.403 42 20.999 42 32.597 32.6 41.998 21.001 42 9.403 41.998.003 32.598 0 20.999zm3.652 0c.02 9.58 7.77 17.33 17.349 17.349 9.58-.018 17.331-7.768 17.347-17.349-.016-9.579-7.766-17.33-17.347-17.347C11.421 3.67 3.673 11.42 3.651 21zM21 31.947a10.927 10.927 0 0 1-7.742-3.206 10.919 10.919 0 0 1-3.207-7.732 10.92 10.92 0 0 1 3.21-7.749A10.9 10.9 0 0 1 21 10.054a10.916 10.916 0 0 1 7.744 3.206l-2.57 2.57A7.29 7.29 0 0 0 21 13.687a7.286 7.286 0 0 0-5.172 2.143 7.282 7.282 0 0 0-2.142 5.179 7.275 7.275 0 0 0 2.145 5.164A7.282 7.282 0 0 0 21 28.313a7.283 7.283 0 0 0 5.171-2.142l.004.002 2.568 2.568a10.922 10.922 0 0 1-7.737 3.206H21z"/>
</svg>
