<svg xmlns="http://www.w3.org/2000/svg" width="43" height="24" viewBox="0 0 43 24">
    <path fill="#FFF" fill-rule="nonzero" d="M.477 10.936c-.088 0-.158.067-.17.164L0 13.44l.308 2.298c.011.097.08.165.169.165.085 0 .154-.067.168-.164l.365-2.3L.645 11.1c-.013-.097-.084-.164-.168-.164zm1.731-1.278c-.014-.1-.086-.17-.175-.17-.09 0-.163.072-.175.17l-.414 3.78.414 3.698c.012.1.085.171.175.171.088 0 .16-.07.175-.17l.47-3.698-.47-3.781zM8.73 6.17c-.17 0-.31.139-.318.316l-.33 6.956.33 4.496a.325.325 0 0 0 .318.314.327.327 0 0 0 .319-.315v.001l.372-4.496-.372-6.956a.327.327 0 0 0-.319-.316zM5.355 8.588c-.13 0-.237.104-.248.243l-.37 4.61.37 4.459c.01.138.117.242.248.242.129 0 .235-.104.246-.242l.422-4.46-.422-4.61c-.011-.138-.117-.242-.246-.242zm6.805 9.664c.21 0 .382-.17.39-.388l.324-4.42-.323-9.261a.395.395 0 0 0-.39-.387.394.394 0 0 0-.391.387l-.287 9.26.287 4.423a.393.393 0 0 0 .39.386zm7.023.02a.54.54 0 0 0 .534-.532v.004-.004l.226-4.293-.226-10.696a.54.54 0 0 0-.534-.532.54.54 0 0 0-.534.532l-.202 10.692.202 4.3a.54.54 0 0 0 .534.53zm-3.538-.016a.465.465 0 0 0 .462-.46v.002l.275-4.353-.275-9.328a.465.465 0 0 0-.463-.46.463.463 0 0 0-.462.46l-.244 9.329.244 4.352a.463.463 0 0 0 .463.458zm-8.61-.041c.15 0 .272-.12.283-.278l.398-4.497-.398-4.277a.287.287 0 0 0-.282-.277.287.287 0 0 0-.283.279l-.35 4.275.35 4.496c.01.159.13.279.283.279zm-3.348-.246c.11 0 .198-.087.211-.206l.446-4.324-.446-4.486c-.013-.12-.101-.206-.211-.206-.111 0-.2.087-.211.206l-.393 4.486.393 4.323c.01.12.1.207.211.207zM17.407 3.96a.5.5 0 0 0-.499.497l-.223 8.988.223 4.325a.498.498 0 0 0 .997-.003v.004l.25-4.325-.25-8.99a.5.5 0 0 0-.498-.496zm-6.968 14.3c.19 0 .345-.155.354-.352l.348-4.466-.348-8.547a.361.361 0 0 0-.354-.351.36.36 0 0 0-.355.35l-.308 8.548.308 4.468c.008.195.164.35.355.35zm3.883-.422v-.002l.299-4.392-.3-9.574a.43.43 0 0 0-.425-.424.429.429 0 0 0-.427.424l-.265 9.573.266 4.395a.428.428 0 0 0 .426.421.43.43 0 0 0 .426-.423v.002zm22.602-9.913a5.17 5.17 0 0 0-2.003.402C34.509 3.661 30.595 0 25.82 0c-1.169 0-2.307.23-3.313.619-.39.151-.495.307-.498.609v16.436c.004.317.25.58.559.612l14.354.009a5.179 5.179 0 0 0 0-10.359zM20.95 1.213a.576.576 0 0 0-.571.57l-.234 11.665.234 4.234c.005.31.26.565.571.565.31 0 .566-.255.57-.57v.006l.254-4.235-.254-11.666a.576.576 0 0 0-.57-.569zM4.181 21.577c-.612-.144-.777-.221-.777-.464 0-.171.138-.348.551-.348.354 0 .63.143.878.397l.558-.54c-.365-.381-.806-.607-1.407-.607-.763 0-1.381.43-1.381 1.132 0 .761.497.988 1.209 1.153.728.165.861.276.861.525 0 .292-.216.42-.673.42a1.25 1.25 0 0 1-.989-.443l-.557.497c.293.43.856.701 1.501.701 1.055 0 1.52-.497 1.52-1.23 0-.84-.68-1.05-1.293-1.193zm3.557-1.562c-1.054 0-1.678.816-1.678 1.992 0 1.176.624 1.993 1.678 1.993 1.054 0 1.678-.817 1.678-1.993 0-1.176-.624-1.992-1.678-1.992zm0 3.218c-.623 0-.883-.536-.883-1.225 0-.69.26-1.226.883-1.226.624 0 .883.536.883 1.226s-.259 1.225-.883 1.225zm4.798-.988c0 .618-.305 1-.795 1-.492 0-.79-.393-.79-1.01v-2.16h-.773v2.17c0 1.126.63 1.755 1.563 1.755.982 0 1.568-.646 1.568-1.766v-2.16h-.773v2.171zm4.106-.536c0 .216.011.701.011.845-.05-.1-.176-.293-.27-.437l-1.37-2.043h-.74v3.865h.763v-1.7c0-.216-.011-.701-.011-.845.05.1.177.293.27.437l1.42 2.108h.69v-3.865h-.763v1.635zm2.965-1.634h-1.21v3.865h1.154c.994 0 1.977-.575 1.977-1.933 0-1.413-.817-1.932-1.921-1.932zm-.056 3.114h-.38v-2.363h.408c.817 0 1.154.392 1.154 1.181 0 .707-.37 1.182-1.182 1.182zm4.367-2.407c.348 0 .569.154.707.42l.717-.332c-.243-.502-.685-.855-1.413-.855-1.01 0-1.717.816-1.717 1.992 0 1.22.68 1.993 1.69 1.993.7 0 1.164-.326 1.43-.873l-.652-.386c-.204.343-.409.492-.757.492-.58 0-.916-.53-.916-1.226 0-.717.332-1.225.911-1.225zm2.867-.707h-.773v3.865h2.322v-.763h-1.55v-3.102zm3.586-.06c-1.055 0-1.679.816-1.679 1.992 0 1.176.624 1.993 1.679 1.993 1.054 0 1.678-.817 1.678-1.993 0-1.176-.624-1.992-1.678-1.992zm0 3.218c-.625 0-.884-.536-.884-1.225 0-.69.26-1.226.884-1.226.623 0 .882.536.882 1.226s-.26 1.225-.882 1.225zm4.796-.988c0 .618-.303 1-.794 1-.492 0-.79-.393-.79-1.01v-2.16h-.772v2.17c0 1.126.629 1.755 1.562 1.755.983 0 1.568-.646 1.568-1.766v-2.16h-.774v2.171zm2.948-2.17h-1.208v3.865h1.153c.994 0 1.977-.575 1.977-1.933 0-1.413-.817-1.932-1.922-1.932zm-.055 3.114h-.38v-2.363h.408c.817 0 1.153.392 1.153 1.181 0 .707-.37 1.182-1.18 1.182z"/>
</svg>
