<svg xmlns="http://www.w3.org/2000/svg" width="42" height="42" viewBox="0 0 42 42">
    <path fill="#FFF" fill-rule="nonzero" d="M0 20.999C.003 9.402 9.403 0 21.001 0 32.601 0 42 9.403 42 20.999 42 32.597 32.6 41.998 21.001 42 9.403 41.998.003 32.598 0 20.999zm3.652 0c.02 9.58 7.77 17.33 17.349 17.349 9.58-.018 17.331-7.768 17.347-17.349-.016-9.579-7.766-17.33-17.347-17.347C11.421 3.67 3.673 11.42 3.651 21zm15.93-4.944v.023a1.808 1.808 0 1 0 0 3.61h2.835a4.446 4.446 0 0 1 .148 8.869v1.706a1.312 1.312 0 1 1-2.625 0v-1.7H16.46a1.313 1.313 0 0 1 0-2.625h5.959a1.824 1.824 0 0 0 0-3.648h-2.835a4.433 4.433 0 1 1 0-8.86h.357v-1.7a1.312 1.312 0 1 1 2.625 0v1.7h2.976a1.312 1.312 0 1 1 0 2.625h-5.959z"/>
</svg>
