<svg xmlns="http://www.w3.org/2000/svg" width="42" height="42" viewBox="0 0 42 42">
    <path fill="#FFF" fill-rule="nonzero" d="M37.852 16.817a4.11 4.11 0 0 0-3.885 2.745h-6.025c-.175-.915-.568-1.786-1.048-2.527l4.235-4.226c1.528.74 3.405.436 4.671-.828a4.122 4.122 0 0 0 0-5.838 4.143 4.143 0 0 0-5.85 0 4.145 4.145 0 0 0-.83 4.662l-4.19 4.27a6.507 6.507 0 0 0-2.533-1.046V8.017a4.102 4.102 0 0 0 2.75-3.878A4.141 4.141 0 0 0 21 0a4.114 4.114 0 0 0-4.148 4.139 4.102 4.102 0 0 0 2.75 3.878v6.012c-.916.174-1.79.566-2.531 1.046l-4.235-4.226c.742-1.525.436-3.399-.83-4.662a4.143 4.143 0 0 0-5.85 0 4.122 4.122 0 0 0 0 5.838c1.266 1.263 3.143 1.525 4.671.828l4.235 4.226a6.479 6.479 0 0 0-1.047 2.527H8.033a4.11 4.11 0 0 0-3.885-2.745A4.141 4.141 0 0 0 0 21a4.141 4.141 0 0 0 4.148 4.139 4.11 4.11 0 0 0 3.885-2.745h6.025c.175.915.568 1.786 1.048 2.527l-4.235 4.226c-1.528-.74-3.405-.435-4.671.828a4.122 4.122 0 0 0 0 5.838 4.143 4.143 0 0 0 5.85 0 4.145 4.145 0 0 0 .83-4.662l4.234-4.226a6.507 6.507 0 0 0 2.533 1.046v6.012a4.102 4.102 0 0 0-2.751 3.878A4.141 4.141 0 0 0 21.044 42a4.114 4.114 0 0 0 4.147-4.139 4.102 4.102 0 0 0-2.75-3.878v-6.1c.917-.173 1.79-.566 2.532-1.045l4.235 4.226c-.742 1.525-.437 3.399.83 4.662a4.143 4.143 0 0 0 5.85 0 4.122 4.122 0 0 0 0-5.838c-1.266-1.264-3.144-1.525-4.672-.828l-4.322-4.182a6.479 6.479 0 0 0 1.048-2.527h6.025a4.11 4.11 0 0 0 3.885 2.744c2.27 0 4.148-1.83 4.148-4.139 0-2.265-1.877-4.139-4.148-4.139zM21 24.965a4.002 4.002 0 0 1-4.017-4.009A4.002 4.002 0 0 1 21 16.948a4.002 4.002 0 0 1 4.017 4.008A4.002 4.002 0 0 1 21 24.965z"/>
</svg>
