<svg xmlns="http://www.w3.org/2000/svg" viewBox="0 0 28 28" width="28" height="28">
	<defs>
		<clipPath clipPathUnits="userSpaceOnUse" id="cp1">
			<path d="M10.41,14l8.29,-8.29c0.18,-0.19 0.28,-0.44 0.28,-0.7c0,-0.26 -0.11,-0.51 -0.29,-0.7c-0.19,-0.19 -0.44,-0.29 -0.7,-0.29c-0.26,0 -0.51,0.1 -0.7,0.28l-9,9c-0.09,0.09 -0.17,0.2 -0.22,0.32c-0.05,0.12 -0.08,0.25 -0.08,0.38c0,0.13 0.03,0.26 0.08,0.38c0.05,0.12 0.12,0.23 0.22,0.32l9,9c0.19,0.18 0.44,0.28 0.7,0.28c0.26,0 0.51,-0.11 0.7,-0.29c0.19,-0.19 0.29,-0.44 0.29,-0.7c0,-0.26 -0.1,-0.51 -0.28,-0.7z" />
		</clipPath>
	</defs>
	<style>
		tspan { white-space:pre }
		.shp0 { fill: #000000 } 
		.shp1 { fill: #ffffff } 
	</style>
	<g id="Layer">
		<path id="a" class="shp0" d="M10.41,14l8.29,-8.29c0.18,-0.19 0.28,-0.44 0.28,-0.7c0,-0.26 -0.11,-0.51 -0.29,-0.7c-0.19,-0.19 -0.44,-0.29 -0.7,-0.29c-0.26,0 -0.51,0.1 -0.7,0.28l-9,9c-0.09,0.09 -0.17,0.2 -0.22,0.32c-0.05,0.12 -0.08,0.25 -0.08,0.38c0,0.13 0.03,0.26 0.08,0.38c0.05,0.12 0.12,0.23 0.22,0.32l9,9c0.19,0.18 0.44,0.28 0.7,0.28c0.26,0 0.51,-0.11 0.7,-0.29c0.19,-0.19 0.29,-0.44 0.29,-0.7c0,-0.26 -0.1,-0.51 -0.28,-0.7z" />
		<g id="Clip-Path" clip-path="url(#cp1)">
			<g id="Layer">
				<path id="Layer" class="shp1" d="M0,28h28v-28h-28z" />
			</g>
		</g>
	</g>
</svg>