<svg xmlns="http://www.w3.org/2000/svg" width="22" height="24" viewBox="0 0 22 24">
    <path fill="#FFF" fill-rule="evenodd" d="M19.2 8.16v-2.4a.96.96 0 0 0-.96-.96h-1.92v.48a.96.96 0 0 1-1.92 0V4.8H6.72v.48a.96.96 0 0 1-1.92 0V4.8H2.88a.96.96 0 0 0-.96.96v2.4H19.2zm0 1.92H1.92v11.04c0 .53.43.96.96.96h15.36c.53 0 .96-.43.96-.96V10.08zM4.8 2.88V.96a.96.96 0 0 1 1.92 0v1.92h7.68V.96a.96.96 0 0 1 1.92 0v1.92h1.92a2.88 2.88 0 0 1 2.88 2.88v15.36A2.88 2.88 0 0 1 18.24 24H2.88A2.88 2.88 0 0 1 0 21.12V5.76a2.88 2.88 0 0 1 2.88-2.88H4.8zm.96 16.32a.96.96 0 0 1-.677-1.637.96.96 0 0 1 1.354 0A.96.96 0 0 1 5.76 19.2zm9.6 0a.96.96 0 0 1-.677-1.637.96.96 0 0 1 1.354 0 .96.96 0 0 1-.677 1.637zm-9.6-4.32a.96.96 0 0 1-.682-1.637.989.989 0 0 1 1.359 0 .96.96 0 0 1-.677 1.637zm4.8 4.32a.96.96 0 0 1-.682-1.637.994.994 0 0 1 1.359 0 .96.96 0 0 1 .283.677c0 .53-.43.96-.96.96zm0-4.32a.96.96 0 0 1-.682-1.637.989.989 0 0 1 1.359 0 .96.96 0 0 1-.677 1.637zm4.8 0a.96.96 0 0 1-.682-1.637.989.989 0 0 1 1.359 0 .96.96 0 0 1-.677 1.637z" opacity=".5"/>
</svg>
