<svg xmlns="http://www.w3.org/2000/svg" width="60" height="42" viewBox="0 0 60 42">
    <path fill="#FFF" fill-rule="evenodd" d="M16.235 24.163a8.64 8.64 0 0 1-7.247-8.539 8.64 8.64 0 0 1 8.652-8.652c4.788.084 8.652 3.948 8.652 8.736 0 4.234-3.13 7.787-7.247 8.455 9.087.716 16.235 8.314 16.235 17.585V42l-3.78-.084c0-7.812-6.216-14.028-13.86-14.028-7.644 0-13.86 6.216-13.86 13.86H0c0-9.271 7.148-16.87 16.235-17.585zm1.405-13.327a4.876 4.876 0 0 0-4.872 4.872 4.876 4.876 0 0 0 4.872 4.872 4.876 4.876 0 0 0 4.872-4.872 4.876 4.876 0 0 0-4.872-4.872zM43.68 31.08c-8.568 0-15.54-6.972-15.54-15.54C28.14 6.972 35.196 0 43.68 0c8.484 0 15.54 6.972 15.54 15.54 0 8.568-6.972 15.54-15.54 15.54zm0-27.3c-6.468 0-11.76 5.292-11.76 11.76S37.212 27.3 43.68 27.3s11.76-5.292 11.76-11.76S50.148 3.78 43.68 3.78zm1.932 9.828h5.376v3.78h-5.376v5.46h-3.78v-5.46h-5.46v-3.78h5.46V8.232h3.78v5.376z"/>
</svg>
