<svg xmlns="http://www.w3.org/2000/svg" width="32" height="32" viewBox="0 0 32 32">
    <g fill="none" fill-rule="evenodd">
        <rect width="32" height="32" fill="#FFF" rx="3"/>
        <circle cx="16" cy="16" r="15" fill="#000"/>
        <path fill="#FFF" d="M21.772 8.485H19.66c-1.658 0-1.978.79-1.978 1.943v2.75h3.74l-.513 3.99h-3.227V27.21h-4.122V17.168h-3.363v-3.99h3.363v-3.145c0-3.416 2.087-5.275 5.135-5.275 1.46 0 2.714.11 3.078.158v3.57zM15.984 0C7.156 0 0 7.156 0 15.984c0 8.827 7.156 15.984 15.984 15.984 8.827 0 15.984-7.157 15.984-15.984C31.968 7.156 24.81 0 15.984 0z"/>
    </g>
</svg>
