<svg xmlns="http://www.w3.org/2000/svg" width="109" height="150" viewBox="0 0 109 150">
    <g fill="none" fill-rule="evenodd">
        <path fill="#DCDDDF" d="M21.329 146.964a.93.93 0 0 1-.929.929h-2.988a.93.93 0 0 1-.928-.929v-15.093a.93.93 0 0 1 .928-.93H20.4a.93.93 0 0 1 .929.93v15.093zm-.929-18.043h-2.988a2.953 2.953 0 0 0-2.95 2.95v15.093a2.953 2.953 0 0 0 2.95 2.95H20.4a2.953 2.953 0 0 0 2.95-2.95v-15.093a2.953 2.953 0 0 0-2.95-2.95zM35.792 146.964a.93.93 0 0 1-.929.929h-2.988a.93.93 0 0 1-.928-.929v-18.043h-2.021v18.043a2.953 2.953 0 0 0 2.95 2.95h2.987a2.953 2.953 0 0 0 2.95-2.95v-18.043h-2.021v18.043zM92.988 128.921v20.993h2.021v-20.993h-1.256zM5.937 128.921H2.95a2.953 2.953 0 0 0-2.95 2.95v5.607a2.953 2.953 0 0 0 2.95 2.95h2.987a.93.93 0 0 1 .929.929v5.607a.93.93 0 0 1-.929.929H2.95a.93.93 0 0 1-.929-.929v-1.42H0v1.42a2.953 2.953 0 0 0 2.95 2.95h2.987a2.953 2.953 0 0 0 2.95-2.95v-5.607a2.953 2.953 0 0 0-2.95-2.95H2.95a.93.93 0 0 1-.929-.929v-5.607a.93.93 0 0 1 .929-.929h2.987a.93.93 0 0 1 .929.929v1.69h2.02v-1.69a2.953 2.953 0 0 0-2.949-2.95M64.736 145.291a2.605 2.605 0 0 1-2.602 2.602h-2.243v-16.951h2.243a2.605 2.605 0 0 1 2.602 2.602v11.747zm-2.602-16.37H57.87v20.993h4.264a4.628 4.628 0 0 0 4.623-4.623v-11.747a4.628 4.628 0 0 0-4.623-4.623zM49.326 128.921h-2.988a2.953 2.953 0 0 0-2.95 2.95v18.043h2.022v-18.043a.93.93 0 0 1 .928-.929h2.988a.93.93 0 0 1 .929.929v18.043h2.02v-18.043a2.953 2.953 0 0 0-2.949-2.95M84.8 128.921h-2.988c-.743 0-1.42.278-1.94.732a2.934 2.934 0 0 0-1.939-.732h-2.987a2.953 2.953 0 0 0-2.95 2.95v18.043h2.021v-18.043a.93.93 0 0 1 .929-.929h2.987a.93.93 0 0 1 .929.929V149.914h2.021V131.871a.93.93 0 0 1 .929-.929h2.987a.93.93 0 0 1 .93.929v18.043h2.02v-18.043a2.953 2.953 0 0 0-2.95-2.95M104.64 140.428l1.99 9.486h2.066l-2.204-10.496 2.204-10.497h-2.066l-1.99 9.486h-1.244l-1.99-9.486H99.34l2.203 10.496-2.203 10.497h2.065l1.991-9.486z"/>
        <path fill="#FFF" d="M76.637 12.837l.019.054z"/>
        <path fill="#DCDDDF" d="M86.633 41.151l-9.977-28.26C73.848 5.426 66.643.114 58.197.114h-7.694c-8.52 0-15.776 5.402-18.531 12.968l-9.916 28.27h-.001a19.717 19.717 0 0 0-.826 5.662c0 1.96.286 3.854.819 5.641l13.714 42.013c2.674 7.718 10.007 13.26 18.635 13.26 8.59 0 15.897-5.494 18.6-13.16h-.002L86.938 51.78h.002c.378-1.526.58-3.123.58-4.766 0-2.042-.31-4.01-.887-5.863"/>
        <path fill="#180B21" d="M84.509 53.077l-.358 1.158c-.116.374-.415.682-.799.754a1.025 1.025 0 0 1-1.174-.702l-.45-1.452c-.295-.954-1.642-.964-1.951-.014l-9.54 29.324c-.593 1.82-2.167 3.2-4.07 3.402a4.771 4.771 0 0 1-5.068-3.333l-2.58-8.331c-1.273-4.117-7.101-4.117-8.375 0L47.65 81.94a4.77 4.77 0 0 1-9.094.065l-9.584-29.458c-.31-.95-1.657-.94-1.952.014l-.434 1.4c-.115.374-.413.681-.798.755a1.025 1.025 0 0 1-1.174-.703l-.375-1.211a19.306 19.306 0 0 1 0-11.42l.36-1.159c.115-.373.413-.68.798-.754.525-.1 1.022.213 1.173.703l.484 1.562c.292.944 1.62.968 1.945.035l10.699-30.643a3.346 3.346 0 0 1 3.943-2.15c1.107.26 1.987 1.106 2.378 2.174l4.284 11.711c1.403 3.837 6.828 3.838 8.234.003l4.218-11.513a3.342 3.342 0 0 1 6.296.048L79.75 42.044c.326.933 1.653.909 1.945-.035l.467-1.51c.116-.374.414-.682.799-.754.525-.1 1.022.212 1.174.702l.374 1.211c1.151 3.72 1.151 7.7 0 11.42M52.872 90.568a1.073 1.073 0 0 1 0-2.147h3.005a1.073 1.073 0 1 1 0 2.147h-3.005zM52.872 94.86a1.073 1.073 0 0 1 0-2.146h3.005a1.073 1.073 0 1 1 0 2.147h-3.005z"/>
        <path fill="#ED227B" d="M54.397 51.94a.942.942 0 1 1 0-1.884.942.942 0 0 1 0 1.885M54.397 48.172a.942.942 0 1 1 0-1.885.942.942 0 0 1 0 1.885M50.628 48.172a.942.942 0 1 1 0-1.885.942.942 0 0 1 0 1.885M50.628 51.94a.942.942 0 1 1 0-1.884.942.942 0 0 1 0 1.885M50.628 55.71a.942.942 0 1 1 0-1.885.942.942 0 0 1 0 1.885M50.628 59.478a.942.942 0 1 1 0-1.884.942.942 0 0 1 0 1.884M50.628 44.403a.942.942 0 1 1 0-1.884.942.942 0 0 1 0 1.884M46.86 48.172a.942.942 0 1 1 0-1.885.942.942 0 0 1 0 1.885M46.86 51.94a.942.942 0 1 1 0-1.884.942.942 0 0 1 0 1.885M46.86 55.71a.942.942 0 1 1 0-1.885.942.942 0 0 1 0 1.885M43.09 48.172a.942.942 0 1 1 0-1.885.942.942 0 0 1 0 1.885M39.321 48.172a.942.942 0 1 1 0-1.885.942.942 0 0 1 0 1.885M43.09 44.403a.942.942 0 1 1 0-1.884.942.942 0 0 1 0 1.884M43.09 40.634a.942.942 0 1 1 0-1.884.942.942 0 0 1 0 1.884M43.09 36.865a.942.942 0 1 1 0-1.884.942.942 0 0 1 0 1.884M43.09 51.94a.942.942 0 1 1 0-1.884.942.942 0 0 1 0 1.885M43.09 55.71a.942.942 0 1 1 0-1.885.942.942 0 0 1 0 1.885M43.09 59.478a.942.942 0 1 1 0-1.884.942.942 0 0 1 0 1.884M39.321 44.403a.942.942 0 1 1 0-1.884.942.942 0 0 1 0 1.884M39.321 51.94a.942.942 0 1 1 0-1.884.942.942 0 0 1 0 1.885M35.552 48.172a.942.942 0 1 1 0-1.885.942.942 0 0 1 0 1.885M35.552 51.94a.942.942 0 1 1 0-1.884.942.942 0 0 1 0 1.885M31.784 48.172a.942.942 0 1 1 0-1.885.942.942 0 0 1 0 1.885M58.166 48.172a.942.942 0 1 1 0-1.885.942.942 0 0 1 0 1.885M58.166 51.94a.943.943 0 1 1 0-1.884.943.943 0 0 1 0 1.885M58.166 55.71a.943.943 0 1 1 0-1.885.943.943 0 0 1 0 1.885M58.166 59.478a.942.942 0 1 1 0-1.884.942.942 0 0 1 0 1.884M58.166 44.403a.942.942 0 1 1 0-1.885.942.942 0 0 1 0 1.885M58.166 40.598a.942.942 0 1 1 0-1.884.942.942 0 0 1 0 1.884M61.935 48.172a.942.942 0 1 1 0-1.885.942.942 0 0 1 0 1.885M61.935 51.94a.942.942 0 1 1 0-1.884.942.942 0 0 1 0 1.885M65.704 48.172a.942.942 0 1 1 0-1.885.942.942 0 0 1 0 1.885M69.473 48.172a.942.942 0 1 1 0-1.885.942.942 0 0 1 0 1.885M69.473 51.94a.942.942 0 1 1 0-1.884.942.942 0 0 1 0 1.885M73.242 48.172a.942.942 0 1 1 0-1.885.942.942 0 0 1 0 1.885M73.242 51.94a.943.943 0 1 1 0-1.884.943.943 0 0 1 0 1.885M73.242 55.71a.943.943 0 1 1 0-1.885.943.943 0 0 1 0 1.885M73.242 44.403a.942.942 0 1 1 0-1.885.942.942 0 0 1 0 1.885M77.01 48.172a.942.942 0 1 1 0-1.885.942.942 0 0 1 0 1.885M65.704 51.94a.943.943 0 1 1 0-1.884.943.943 0 0 1 0 1.885M65.704 55.71a.943.943 0 1 1 0-1.885.943.943 0 0 1 0 1.885M65.704 59.478a.942.942 0 1 1 0-1.884.942.942 0 0 1 0 1.884M65.704 63.247a.942.942 0 1 1 0-1.884.942.942 0 0 1 0 1.884M65.704 44.403a.942.942 0 1 1 0-1.885.942.942 0 0 1 0 1.885M65.704 40.634a.942.942 0 1 1 0-1.885.942.942 0 0 1 0 1.885M65.704 36.865a.942.942 0 1 1 0-1.885.942.942 0 0 1 0 1.885"/>
    </g>
</svg>
