<svg xmlns="http://www.w3.org/2000/svg" width="122" height="24" viewBox="0 0 122 24">
    <g fill="#E6E6E6" fill-rule="evenodd">
        <path d="M23.881 20.404c0 .57-.463 1.034-1.034 1.034h-3.326c-.571 0-1.034-.464-1.034-1.034V3.596c0-.57.463-1.033 1.034-1.033h3.326c.57 0 1.034.463 1.034 1.033v16.808zM22.847.312h-3.326a3.288 3.288 0 0 0-3.285 3.284v16.808a3.288 3.288 0 0 0 3.285 3.284h3.326a3.288 3.288 0 0 0 3.285-3.284V3.596A3.288 3.288 0 0 0 22.847.312zM39.986 20.404c0 .57-.464 1.034-1.034 1.034h-3.327c-.57 0-1.034-.464-1.034-1.034V.312h-2.25v20.092a3.288 3.288 0 0 0 3.284 3.284h3.327a3.288 3.288 0 0 0 3.284-3.284V.312h-2.25v20.092zM103.675.312v23.376h2.25V.312h-1.399zM6.743.312H3.416A3.288 3.288 0 0 0 .13 3.596v6.245a3.289 3.289 0 0 0 3.285 3.284h3.327c.57 0 1.034.464 1.034 1.034v6.245c0 .57-.464 1.034-1.034 1.034H3.416c-.57 0-1.034-.464-1.034-1.034v-1.582H.132v1.582a3.289 3.289 0 0 0 3.284 3.284h3.327a3.289 3.289 0 0 0 3.284-3.284v-6.245a3.288 3.288 0 0 0-3.284-3.284H3.416c-.57 0-1.034-.464-1.034-1.034V3.596c0-.57.464-1.034 1.034-1.034h3.327c.57 0 1.034.464 1.034 1.034V5.48h2.25V3.596A3.288 3.288 0 0 0 6.743.312M72.216 18.54a2.9 2.9 0 0 1-2.897 2.898H66.82V2.562h2.498a2.9 2.9 0 0 1 2.897 2.897v13.082zM69.319.313H64.57v23.376h4.748a5.153 5.153 0 0 0 5.147-5.147V5.459A5.154 5.154 0 0 0 69.32.312zM55.057.312H51.73a3.288 3.288 0 0 0-3.284 3.284v20.092h2.25V3.596c0-.57.464-1.034 1.034-1.034h3.327c.57 0 1.034.464 1.034 1.034v20.092h2.25V3.596A3.288 3.288 0 0 0 55.058.312M94.557.312H91.23c-.827 0-1.581.31-2.16.816a3.266 3.266 0 0 0-2.158-.816h-3.327A3.288 3.288 0 0 0 80.3 3.596v20.092h2.25V3.596c0-.57.464-1.034 1.035-1.034h3.327c.57 0 1.034.464 1.034 1.034V23.688h2.25V3.596c0-.57.464-1.034 1.034-1.034h3.327c.57 0 1.034.464 1.034 1.034v20.092h2.25V3.596A3.288 3.288 0 0 0 94.557.312M116.65 13.125l2.216 10.563h2.3L118.712 12 121.166.312h-2.299l-2.218 10.563h-1.384L113.048.312h-2.3L113.202 12l-2.454 11.688h2.3l2.217-10.563z"/>
    </g>
</svg>
